<?xml version="1.0" standalone="no"?>
<!DOCTYPE svg PUBLIC "-//W3C//DTD SVG 20010904//EN"
 "http://www.w3.org/TR/2001/REC-SVG-20010904/DTD/svg10.dtd">
<svg version="1.0" xmlns="http://www.w3.org/2000/svg"
 width="1280.000000pt" height="1278.000000pt" viewBox="0 0 1280.000000 1278.000000"
 preserveAspectRatio="xMidYMid meet">
<g transform="translate(0.000000,1278.000000) scale(0.100000,-0.100000)"
fill="#000000" stroke="none">
<path d="M8010 11225 c-8 -2 -49 -8 -90 -15 -189 -29 -430 -110 -634 -212
-498 -250 -806 -632 -907 -1127 -26 -126 -36 -399 -20 -541 34 -296 122 -573
291 -915 154 -310 287 -509 475 -703 252 -262 521 -418 845 -488 68 -15 128
-19 295 -19 239 0 331 15 550 86 345 113 633 286 850 510 213 220 342 478 402
800 24 132 24 434 -1 584 -101 619 -451 1297 -850 1647 -217 190 -458 314
-726 373 -69 15 -435 31 -480 20z m89 -1231 c148 -72 323 -317 476 -668 235
-541 232 -794 -12 -908 -123 -58 -239 -34 -340 69 -162 168 -406 650 -501 991
-22 82 -26 117 -27 227 0 125 1 132 29 182 32 58 82 97 159 125 67 24 141 18
216 -18z"/>
<path d="M5470 10065 c-38 -10 -1713 -765 -1828 -824 -83 -42 -126 -126 -104
-203 6 -18 336 -753 736 -1633 605 -1335 731 -1605 760 -1632 39 -36 102 -57
143 -47 30 7 1788 800 1863 840 65 35 95 84 95 153 0 51 -16 89 -159 406 -88
193 -168 362 -178 377 -30 43 -83 70 -138 70 -41 0 -101 -24 -407 -162 -197
-90 -373 -169 -390 -176 -31 -13 -33 -13 -48 10 -9 13 -36 69 -60 123 -35 77
-42 100 -32 110 6 7 142 71 302 143 352 159 361 164 391 216 45 77 41 92 -137
484 -89 197 -172 367 -186 382 -36 37 -103 62 -146 54 -19 -4 -163 -65 -320
-136 -354 -160 -352 -159 -365 -151 -6 3 -34 58 -62 121 -36 79 -49 119 -43
129 5 8 175 90 377 182 202 91 382 177 398 189 41 31 72 102 64 150 -5 32
-259 609 -324 737 -39 76 -119 110 -202 88z"/>
<path d="M2720 8794 c-8 -1 -62 -10 -120 -19 -418 -65 -818 -237 -1102 -472
-242 -200 -414 -487 -463 -771 -59 -336 62 -708 311 -956 234 -235 586 -367
1229 -461 358 -52 445 -85 445 -172 0 -151 -366 -273 -819 -273 -129 0 -178
-19 -216 -84 -48 -83 -45 -93 156 -536 99 -219 190 -407 202 -418 51 -46 85
-55 187 -48 570 39 1152 304 1476 671 370 419 456 914 233 1345 -81 158 -205
296 -357 399 -221 150 -619 270 -1060 321 -266 31 -416 73 -472 132 -29 32
-25 53 20 101 96 105 323 168 653 182 86 4 159 12 184 21 78 28 123 106 110
188 -8 51 -336 767 -366 799 -41 45 -73 57 -148 56 -37 -1 -75 -3 -83 -5z"/>
<path d="M10825 7233 c-238 -24 -2459 -274 -2466 -279 -20 -12 -6 -71 61 -243
39 -99 70 -194 70 -211 0 -29 -5 -34 -52 -53 -241 -98 -556 -289 -788 -477
-498 -404 -699 -489 -1235 -520 -575 -33 -983 -136 -1426 -361 -238 -120 -436
-253 -679 -454 -201 -166 -398 -284 -562 -339 -145 -48 -287 -69 -587 -86
-387 -22 -739 -91 -993 -195 -28 -11 -22 -54 23 -174 58 -154 53 -150 131
-128 196 55 303 70 708 97 685 47 1184 248 1755 705 191 153 320 242 445 308
241 127 508 195 835 212 597 31 1021 145 1460 390 170 95 322 201 540 376 105
84 226 176 271 205 88 58 238 134 264 134 34 0 53 -31 118 -200 84 -215 93
-234 114 -238 23 -4 -29 -41 1058 746 852 618 1040 759 1040 784 0 8 -29 8
-105 1z"/>
<path d="M9737 5976 c-87 -36 -140 -85 -181 -168 l-36 -71 0 -2333 0 -2334 23
-5 c12 -3 272 -4 577 -3 l554 3 8 39 c5 21 7 1070 6 2330 l-3 2291 -23 56
c-32 80 -90 142 -170 181 l-67 33 -315 2 c-312 3 -315 3 -373 -21z"/>
<path d="M8390 5541 c-94 -30 -168 -96 -214 -191 l-31 -65 -3 -2055 c-1 -1131
1 -2081 5 -2110 l8 -55 565 -2 c345 -2 571 1 580 7 13 8 15 254 15 2112 l0
2103 -31 66 c-37 78 -85 129 -157 167 l-52 27 -330 2 c-181 1 -341 -2 -355 -6z"/>
<path d="M6990 5087 c-76 -29 -159 -113 -191 -192 l-24 -60 -3 -1853 c-1
-1019 1 -1868 6 -1885 l8 -32 555 -3 c305 -1 564 0 577 3 l22 5 0 1884 0 1884
-22 56 c-30 80 -85 138 -170 181 l-71 35 -316 -1 c-298 0 -319 -1 -371 -22z"/>
<path d="M5643 4456 c-91 -29 -166 -97 -210 -191 l-28 -60 -3 -1546 c-1 -1004
1 -1556 8 -1573 l10 -26 564 0 c464 0 566 2 575 14 8 10 11 423 9 1582 l-3
1569 -34 63 c-40 74 -84 115 -161 151 l-55 26 -315 2 c-239 2 -325 -1 -357
-11z"/>
<path d="M4290 3754 c-109 -30 -181 -90 -229 -194 l-26 -55 -3 -1203 c-1 -826
1 -1209 8 -1222 10 -20 24 -20 574 -20 465 0 566 2 575 14 8 10 11 331 9 1227
l-3 1214 -22 48 c-33 70 -103 140 -176 173 l-62 29 -295 2 c-237 2 -306 -1
-350 -13z"/>
<path d="M2931 3130 c-113 -24 -213 -112 -250 -222 -21 -61 -21 -74 -21 -943
0 -672 3 -884 12 -893 17 -17 1129 -17 1146 0 9 9 12 222 12 895 0 848 -1 886
-19 939 -35 99 -107 174 -202 211 -37 14 -90 17 -339 19 -162 2 -315 -1 -339
-6z"/>
</g>
</svg>
